# xmcd
#
# Track frame offsets: 
#        150
#        18164
#        34466
#        57116
#        74182
#        88084
#        103761
#        124822
#        142893
#        157216
#        175318
#        193258
#        210355
#        230211
#        247175
#
# Disc length: 3600 seconds
#
# Revision: 1
# Processed by: cddbd v1.5.2PL0 Copyright (c) Steve Scherf et al.
# Submitted via: ExactAudioCopy v1.0b1
#
DISCID=e70e0e0f
DTITLE=The Kentucky Headhunters - Flying Under the Radar
DYEAR=2006
DGENRE=Country
TTITLE0=Louisianna CoCo
TTITLE1=Country Life
TTITLE2=Back to the Sun
TTITLE3=Big Boss Man
TTITLE4=Take These Chains From My Heart
TTITLE5=Go To Heaven
TTITLE6=Too Much To Lose
TTITLE7=Chug A Lug (Dance Mix)
TTITLE8=Midnight Special
TTITLE9=Lonely Nights
TTITLE10=Everyday People
TTITLE11=Love That Woman
TTITLE12=Once In A While
TTITLE13=Ashes of Love
TTITLE14=Rock On
EXTD=
EXTT0=
EXTT1=
EXTT2=
EXTT3=
EXTT4=
EXTT5=
EXTT6=
EXTT7=
EXTT8=
EXTT9=
EXTT10=
EXTT11=
EXTT12=
EXTT13=
EXTT14=
PLAYORDER=
